<mxfile host="Electron" modified="2023-06-06T19:13:57.663Z" agent="Mozilla/5.0 (Macintosh; Intel Mac OS X 10_15_7) AppleWebKit/537.36 (KHTML, like Gecko) draw.io/21.2.8 Chrome/112.0.5615.165 Electron/24.2.0 Safari/537.36" etag="6lRjqE46Wr7ELeTiOO51" version="21.2.8" type="device">
  <diagram name="Page-1" id="LqbIiabazd8KHNIvDpRV">
    <mxGraphModel dx="1114" dy="854" grid="1" gridSize="10" guides="1" tooltips="1" connect="1" arrows="1" fold="1" page="1" pageScale="1" pageWidth="827" pageHeight="1169" math="0" shadow="0">
      <root>
        <mxCell id="0" />
        <mxCell id="1" parent="0" />
        <mxCell id="yR3y2CX_svczN8nzhuty-6" value="&lt;div style=&quot;font-size: 1px&quot;&gt;&lt;p style=&quot;align:center;margin-left:0;margin-right:0;margin-top:0px;margin-bottom:0px;text-indent:0;valign:middle;direction:ltr;&quot;&gt;&lt;font style=&quot;font-size:16.93px;font-family:Oracle Sans;color:#000000;direction:ltr;letter-spacing:0px;line-height:120%;opacity:1&quot;&gt;&lt;br&gt;&lt;/font&gt;&lt;/p&gt;&lt;/div&gt;" style="verticalAlign=middle;align=center;vsdxID=10;fillColor=none;gradientColor=none;shape=stencil(nZBLDoAgDERP0z3SIyjew0SURgSD+Lu9kMZoXLhwN9O+tukAlrNpJg1SzDH4QW/URgNYgZTkjA4UkwJUgGXng+6DX1zLfmoymdXo17xh5zmRJ6Q42BWCfc2oJfdAr+Yv+AP9Cb7OJ3H/2JG1HNGz/84klThPVCc=);strokeColor=none;spacingTop=-3;spacingBottom=-3;spacingLeft=-3;spacingRight=-3;points=[];labelBackgroundColor=none;rounded=0;html=1;whiteSpace=wrap;" vertex="1" parent="1">
          <mxGeometry x="261" y="234" width="81" height="20" as="geometry" />
        </mxCell>
        <mxCell id="yR3y2CX_svczN8nzhuty-8" style="edgeStyle=orthogonalEdgeStyle;rounded=1;orthogonalLoop=1;jettySize=auto;html=1;exitX=0.5;exitY=0;exitDx=0;exitDy=0;entryX=0.012;entryY=0.506;entryDx=0;entryDy=0;entryPerimeter=0;sketch=1;curveFitting=1;jiggle=2;" edge="1" parent="1" source="yR3y2CX_svczN8nzhuty-7">
          <mxGeometry relative="1" as="geometry">
            <mxPoint x="271.6880000000001" y="190.0340000000001" as="targetPoint" />
            <Array as="points">
              <mxPoint x="160" y="260" />
              <mxPoint x="220" y="260" />
              <mxPoint x="220" y="195" />
            </Array>
          </mxGeometry>
        </mxCell>
        <mxCell id="yR3y2CX_svczN8nzhuty-17" value="Provision" style="edgeLabel;html=1;align=center;verticalAlign=middle;resizable=0;points=[];" vertex="1" connectable="0" parent="yR3y2CX_svczN8nzhuty-8">
          <mxGeometry x="-0.0453" y="1" relative="1" as="geometry">
            <mxPoint as="offset" />
          </mxGeometry>
        </mxCell>
        <mxCell id="yR3y2CX_svczN8nzhuty-10" style="edgeStyle=orthogonalEdgeStyle;rounded=1;orthogonalLoop=1;jettySize=auto;html=1;entryX=0;entryY=0.5;entryDx=0;entryDy=0;sketch=1;curveFitting=1;jiggle=2;" edge="1" parent="1" source="yR3y2CX_svczN8nzhuty-7" target="yR3y2CX_svczN8nzhuty-9">
          <mxGeometry relative="1" as="geometry" />
        </mxCell>
        <mxCell id="yR3y2CX_svczN8nzhuty-19" value="Define" style="edgeLabel;html=1;align=center;verticalAlign=middle;resizable=0;points=[];" vertex="1" connectable="0" parent="yR3y2CX_svczN8nzhuty-10">
          <mxGeometry x="0.0595" y="-3" relative="1" as="geometry">
            <mxPoint x="-3" y="-3" as="offset" />
          </mxGeometry>
        </mxCell>
        <mxCell id="yR3y2CX_svczN8nzhuty-79" style="edgeStyle=orthogonalEdgeStyle;orthogonalLoop=1;jettySize=auto;html=1;entryX=0.5;entryY=1;entryDx=0;entryDy=0;curved=1;sketch=1;curveFitting=1;jiggle=2;exitX=0.5;exitY=1;exitDx=0;exitDy=0;" edge="1" parent="1" source="yR3y2CX_svczN8nzhuty-7" target="yR3y2CX_svczN8nzhuty-11">
          <mxGeometry relative="1" as="geometry">
            <Array as="points">
              <mxPoint x="230" y="360" />
              <mxPoint x="230" y="420" />
              <mxPoint x="450" y="420" />
              <mxPoint x="450" y="390" />
              <mxPoint x="491" y="390" />
            </Array>
          </mxGeometry>
        </mxCell>
        <mxCell id="yR3y2CX_svczN8nzhuty-80" value="Execute" style="edgeLabel;html=1;align=center;verticalAlign=middle;resizable=0;points=[];" vertex="1" connectable="0" parent="yR3y2CX_svczN8nzhuty-79">
          <mxGeometry x="0.0004" y="2" relative="1" as="geometry">
            <mxPoint as="offset" />
          </mxGeometry>
        </mxCell>
        <mxCell id="yR3y2CX_svczN8nzhuty-7" value="Terraform" style="shape=image;verticalLabelPosition=middle;labelBackgroundColor=default;verticalAlign=middle;aspect=fixed;imageAspect=0;image=data:image/svg+xml,PHN2ZyB4bWxuczp4bGluaz0iaHR0cDovL3d3dy53My5vcmcvMTk5OS94bGluayIgeG1sbnM9Imh0dHA6Ly93d3cudzMub3JnLzIwMDAvc3ZnIiBzdHJva2UtbGluZWpvaW49InJvdW5kIiBzdHJva2UtbGluZWNhcD0icm91bmQiIHN0cm9rZT0iIzAwMCIgZmlsbC1ydWxlPSJldmVub2RkIiBmaWxsPSIjZmZmIiB2aWV3Qm94PSIwIDAgNTggNjYiPjx1c2UgeT0iLjUiIHg9Ii41IiB4bGluazpocmVmPSIjQSIvPjxzeW1ib2wgb3ZlcmZsb3c9InZpc2libGUiIGlkPSJBIj48ZyBzdHJva2U9Im5vbmUiPjxwYXRoIGZpbGw9IiM1YzRlZTUiIGQ9Ik0zNi45MDYgNjRWNDMuODAyTDE5LjQxMiAzMy42OTl2MjAuMTk4em0wLTIyLjQwNUwxOS40MTIgMzEuNDkxVjExLjI4NWwxNy40OTQgMTAuMTAzeiIvPjxwYXRoIGZpbGw9IiM0MDQwYjIiIGQ9Ik01Ni4zMzYgMzEuNDgzVjExLjI3N0wzOC44MzMgMjEuMzh2MjAuMjA2eiIvPjxwYXRoIGZpbGw9IiM1YzRlZTUiIGQ9Ik0xNy40OTQgMzAuMzA5VjEwLjEwM0wwIDB2MjAuMjA2eiIvPjwvZz48L3N5bWJvbD48L3N2Zz4=;sketch=1;curveFitting=1;jiggle=2;labelPosition=left;align=right;" vertex="1" parent="1">
          <mxGeometry x="120" y="280" width="70.3" height="80" as="geometry" />
        </mxCell>
        <mxCell id="yR3y2CX_svczN8nzhuty-9" value="Inventory" style="image;html=1;image=img/lib/clip_art/general/Full_Folder_128x128.png;sketch=1;curveFitting=1;jiggle=2;" vertex="1" parent="1">
          <mxGeometry x="280" y="280" width="80" height="80" as="geometry" />
        </mxCell>
        <mxCell id="yR3y2CX_svczN8nzhuty-14" style="edgeStyle=orthogonalEdgeStyle;rounded=0;orthogonalLoop=1;jettySize=auto;html=1;exitX=0.5;exitY=0;exitDx=0;exitDy=0;entryX=1.025;entryY=0.494;entryDx=0;entryDy=0;entryPerimeter=0;sketch=1;curveFitting=1;jiggle=2;" edge="1" parent="1" source="yR3y2CX_svczN8nzhuty-11">
          <mxGeometry relative="1" as="geometry">
            <mxPoint x="371.9749999999999" y="188.9659999999999" as="targetPoint" />
            <Array as="points">
              <mxPoint x="493" y="260" />
              <mxPoint x="440" y="260" />
              <mxPoint x="440" y="189" />
            </Array>
          </mxGeometry>
        </mxCell>
        <mxCell id="yR3y2CX_svczN8nzhuty-18" value="Configure" style="edgeLabel;html=1;align=center;verticalAlign=middle;resizable=0;points=[];" vertex="1" connectable="0" parent="yR3y2CX_svczN8nzhuty-14">
          <mxGeometry x="0.0253" y="1" relative="1" as="geometry">
            <mxPoint y="1" as="offset" />
          </mxGeometry>
        </mxCell>
        <mxCell id="yR3y2CX_svczN8nzhuty-21" value="Consume" style="edgeStyle=orthogonalEdgeStyle;rounded=0;orthogonalLoop=1;jettySize=auto;html=1;sketch=1;curveFitting=1;jiggle=2;" edge="1" parent="1" source="yR3y2CX_svczN8nzhuty-11" target="yR3y2CX_svczN8nzhuty-9">
          <mxGeometry relative="1" as="geometry" />
        </mxCell>
        <mxCell id="yR3y2CX_svczN8nzhuty-11" value="Ansible" style="shape=image;verticalLabelPosition=middle;labelBackgroundColor=default;verticalAlign=middle;aspect=fixed;imageAspect=0;image=data:image/svg+xml,PHN2ZyB4bWxuczp4bGluaz0iaHR0cDovL3d3dy53My5vcmcvMTk5OS94bGluayIgeG1sbnM9Imh0dHA6Ly93d3cudzMub3JnLzIwMDAvc3ZnIiBzdHJva2UtbGluZWpvaW49InJvdW5kIiBzdHJva2UtbGluZWNhcD0icm91bmQiIHN0cm9rZT0iIzAwMCIgZmlsbC1ydWxlPSJldmVub2RkIiBmaWxsPSIjZmZmIiB2aWV3Qm94PSIwIDAgNjYgNjUiPjx1c2UgeT0iLjUiIHg9Ii41IiB4bGluazpocmVmPSIjQSIvPjxzeW1ib2wgb3ZlcmZsb3c9InZpc2libGUiIGlkPSJBIj48ZyBmaWxsLXJ1bGU9Im5vbnplcm8iIHN0cm9rZT0ibm9uZSI+PHBhdGggZmlsbD0iIzFhMTkxOCIgZD0iTTY0IDMyYzAgMTcuNjc0LTE0LjMyNiAzMi0zMiAzMlMwIDQ5LjY3NCAwIDMyIDE0LjMyOCAwIDMyIDBzMzIgMTQuMzI4IDMyIDMyIi8+PHBhdGggZD0iTTMyLjU0IDE5LjU0OGw4LjI4IDIwLjQzOC0xMi41MDgtOS44NTN6bTE0LjcgMjUuMTQ3TDM0LjUxMiAxNC4wNGMtLjM2NC0uODg0LTEuMS0xLjM1Mi0xLjk3My0xLjM1MnMtMS42NjQuNDY4LTIuMDI4IDEuMzUyTDE2LjUyIDQ3LjY2NGg0Ljc4M2w1LjUzNC0xMy44NjMgMTYuNTE1IDEzLjM0M2MuNjY0LjUzNyAxLjE0NC43OCAxLjc2Ny43OCAxLjI0OCAwIDIuMzM4LS45MzYgMi4zMzgtMi4yODYgMC0uMjItLjA3OC0uNTctLjIxOC0uOTQ0eiIvPjwvZz48L3N5bWJvbD48L3N2Zz4=;labelPosition=right;align=left;" vertex="1" parent="1">
          <mxGeometry x="450" y="280" width="81.23" height="80" as="geometry" />
        </mxCell>
        <mxCell id="yR3y2CX_svczN8nzhuty-60" style="vsdxID=20;fillColor=none;gradientColor=none;strokeColor=none;spacingTop=-3;spacingBottom=-3;spacingLeft=-3;spacingRight=-3;points=[];labelBackgroundColor=none;rounded=0;html=1;whiteSpace=wrap;" vertex="1" parent="1">
          <mxGeometry x="230" y="90" width="84" height="84" as="geometry" />
        </mxCell>
        <mxCell id="yR3y2CX_svczN8nzhuty-61" style="vsdxID=21;fillColor=none;gradientColor=none;strokeColor=none;spacingTop=-3;spacingBottom=-3;spacingLeft=-3;spacingRight=-3;points=[];labelBackgroundColor=none;rounded=0;html=1;whiteSpace=wrap;" vertex="1" parent="yR3y2CX_svczN8nzhuty-60">
          <mxGeometry width="84" height="84" as="geometry" />
        </mxCell>
        <mxCell id="yR3y2CX_svczN8nzhuty-62" style="vsdxID=22;fillColor=#FFFFFF;gradientColor=none;shape=stencil(lZPRDoIwDEW/Zq9LWUHCs+J/EAVZRCATFP/eYYdsAzW+td2922mzMtxey6zNmYBrp5pzfpfHrmS4Y0LIusyV7HTEMGW4LRqVn1TT10fK22xUjtGluY03DOSLOEajScCDCknC482rsif9oVdkCEggeIjGEfgWGASVwChMmsQchVGgqzBpEvLQfrWStUUJDuKb+QMhuHgz8ERnteDyTnDWVBzcVTiNvnFnCN/o9Cyi2CUEFy8Ab3xWB+hLfOJVxFnuI3+AnA1L6kEsG/HJB1zOxkNfBf39Hf/V62D++4WsKlod+9zfFV2iPcP0CQ==);strokeColor=none;spacingTop=-3;spacingBottom=-3;spacingLeft=-3;spacingRight=-3;points=[];labelBackgroundColor=none;rounded=0;html=1;whiteSpace=wrap;" vertex="1" parent="yR3y2CX_svczN8nzhuty-61">
          <mxGeometry x="1" y="1" width="82" height="82" as="geometry" />
        </mxCell>
        <mxCell id="yR3y2CX_svczN8nzhuty-63" style="vsdxID=23;fillColor=#FFFFFF;gradientColor=none;shape=stencil(lZXRdoIwDIafprc9aUOBXjv3Hp6JgzMGHsQN316whbYBQe9K/INf/iSU4e6SH84Zk3Bpm/on+y+Obc7wg0lZVHnWFG1/YrhnuDvVTfbd1NfqaJ7Ph0E5nH7rv+ENncnTyFENWRJuJiI5po/Ap9F/XRuTIGyG4pG2GYKkQCetKOE4imwo4tJGOpyLbCjmEfp/XhaVD+slTPipWKX1UlwBWhFcryZXQRoTXs8rpKpF4L4cEfJSPeXtXUoJbsJjGeI6v2+ugESEtJ7I8avkOayXsNwMyuoliFmP5ayeGXyHM5co+/IYbM7su/qtnYA3WgzrlqUqtAxCv4CaRYcQQqfWFwYCss1lAUYnT0R08iZ+GxEAbKObo+RZc1S400S+sNGCeOgYKJS3zVMpSDWvrYfTv7YdWvMkpt/JqZsjV8y1CFGJnQsfnXU310a3P7iL4FSUpblH/N/pxdGHzKWD+zs=);strokeColor=none;spacingTop=-3;spacingBottom=-3;spacingLeft=-3;spacingRight=-3;points=[];labelBackgroundColor=none;rounded=0;html=1;whiteSpace=wrap;" vertex="1" parent="yR3y2CX_svczN8nzhuty-61">
          <mxGeometry width="84" height="84" as="geometry" />
        </mxCell>
        <mxCell id="yR3y2CX_svczN8nzhuty-64" style="vsdxID=24;fillColor=#2d5967;gradientColor=none;shape=stencil(pZXdcoMgEIWfhlsHWbX1Ok3eI9OYytRqxpgW3r5a5GcXQzLTO9g9ON8ej8hgd22Pl4YJfp3G4bP5kaepZfDGhJB924xymlcM9gx252FsPsbh1p/M/nJclMvqa/henqDMubrMXsrllODaVHLO//YHI+9kH8iLTCTV77fRPD03bbGKc6zmSpjCutXrtn5d24DbQGE34Tgic6h30DhGExhMYDCOuQIbEOkmVl0hrqRf1gCNIS2V809jTMvl+xR0k8zLEekdNq8msIq8PU1pVfT+HGAybQ/DibMchRNIXOhEBZ7Hyd1EvmJnKvBEEA2UdhzoQGnLA7n1vHJDKozkvqEqKzFknFaneSawVBxl1iMFlATSVwJOQUADEWzZQzEz7OWjLz44gAOgYiQdJUABcYdG4LkL85/yeeGv8rPsOvMnCPv06p9L5rcB+18=);strokeColor=none;spacingTop=-3;spacingBottom=-3;spacingLeft=-3;spacingRight=-3;points=[];labelBackgroundColor=none;rounded=0;html=1;whiteSpace=wrap;" vertex="1" parent="yR3y2CX_svczN8nzhuty-60">
          <mxGeometry x="2" y="2" width="80" height="80" as="geometry" />
        </mxCell>
        <mxCell id="yR3y2CX_svczN8nzhuty-65" style="vsdxID=25;fillColor=none;gradientColor=none;strokeColor=none;spacingTop=-3;spacingBottom=-3;spacingLeft=-3;spacingRight=-3;points=[];labelBackgroundColor=none;rounded=0;html=1;whiteSpace=wrap;" vertex="1" parent="yR3y2CX_svczN8nzhuty-60">
          <mxGeometry x="13" y="23" width="58" height="38" as="geometry" />
        </mxCell>
        <mxCell id="yR3y2CX_svczN8nzhuty-66" style="vsdxID=26;fillColor=#2d5967;gradientColor=none;shape=stencil(pZLNDoMgEISfhitBtlbu1r6HiVhIKRjE/rx9IRyqNMXa3mbhm81kMwjqUbQDR5SMzpozv8nOCQQHRKnUglvpvELQIKh7Y/nJmkl3cR7aQAZ1Mdew4R59BSHBQ8ljOR8jrKSewT+jGTANsAHNBliBkyuUuIIFznaYVp+3M4rJn4Zij1mZyf8WabNhJdIXBi9exemlUrF38/+0aP4plhSaJw==);strokeColor=none;spacingTop=-3;spacingBottom=-3;spacingLeft=-3;spacingRight=-3;points=[];labelBackgroundColor=none;rounded=0;html=1;whiteSpace=wrap;" vertex="1" parent="yR3y2CX_svczN8nzhuty-65">
          <mxGeometry x="9" width="17" height="17" as="geometry" />
        </mxCell>
        <mxCell id="yR3y2CX_svczN8nzhuty-67" style="vsdxID=27;fillColor=#2d5967;gradientColor=none;shape=stencil(pZJNDoIwEIVP023TTkXqGvEeRIo0IiUFFG8vzZAIJQLqbn6+13mdDBFRnSeVIsDqxpqreui0yYk4EgBd5srqpo+IiImIMmPVxZq2TDGvEke66Gbu7oUOdZwxpwH2nOYnhAtdjuCf0QXQNzBBz61FsxybB0llOOBDiVMOWOlgDoE3pBP+VLHhMytL8jYa0FBMcLmjEH5+XQJl8J+A76kMFvzPLH0tWLG0QdAH7yPMdFHgDY/7/tH2JTx4Eb8A);strokeColor=none;spacingTop=-3;spacingBottom=-3;spacingLeft=-3;spacingRight=-3;points=[];labelBackgroundColor=none;rounded=0;html=1;whiteSpace=wrap;" vertex="1" parent="yR3y2CX_svczN8nzhuty-65">
          <mxGeometry x="30" width="17" height="17" as="geometry" />
        </mxCell>
        <mxCell id="yR3y2CX_svczN8nzhuty-68" style="vsdxID=28;fillColor=#2d5967;gradientColor=none;shape=stencil(UzV2Ls5ILEhVNTIoLinKz04tz0wpyVA1dlE1MsrMy0gtyiwBslSNXVWNndPyi1LTi/JL81Ig/IJEkEoQKze/DGRCBUSfoYEBSI+RQSUq3w2iOCczD0kx2UrxKER3AAlK8TqAgGK0UDDTszBFUW5homdkjtt0hDTZGhB2Ync/hpNI1kDASURoADIQCSctMycHku6Q5dETGlAIkkiNXQE=);strokeColor=none;spacingTop=-3;spacingBottom=-3;spacingLeft=-3;spacingRight=-3;points=[];labelBackgroundColor=none;rounded=0;html=1;whiteSpace=wrap;" vertex="1" parent="yR3y2CX_svczN8nzhuty-65">
          <mxGeometry x="19" y="20" width="17" height="17" as="geometry" />
        </mxCell>
        <mxCell id="yR3y2CX_svczN8nzhuty-69" style="vsdxID=29;fillColor=#2d5967;gradientColor=none;shape=stencil(UzV2Ls5ILEhVNTIoLinKz04tz0wpyVA1dlE1MsrMy0gtyiwBslSNXVWNndPyi1LTi/JL81Ig/IJEkEoQKze/DGRCBUSfoYEBSI+RQSUq3w2iOCczD0kx2UrxKER3AAlK8TqAgGK0UDDTszBFUW5homdkjtt0hDTZGhB2Ync/hpNI1kDASURoADIQCSctMycHku6Q5dETGlAIkkiNXQE=);strokeColor=none;spacingTop=-3;spacingBottom=-3;spacingLeft=-3;spacingRight=-3;points=[];labelBackgroundColor=none;rounded=0;html=1;whiteSpace=wrap;" vertex="1" parent="yR3y2CX_svczN8nzhuty-65">
          <mxGeometry x="40" y="20" width="17" height="17" as="geometry" />
        </mxCell>
        <mxCell id="yR3y2CX_svczN8nzhuty-70" style="vsdxID=30;fillColor=#2d5967;gradientColor=none;shape=stencil(pZLZDsIgEEW/hlcCjBV8rvU/mpQKEUtDcft7QWJsNXbRt1nOndxMLoK8U2UrESOdd/YgL7ryCsEWMaYbJZ32oUJQIMhr6+Te2VNTpb4tIxmroz3HC9ek2wgseFQxcksTSsij3yXc6KaHk1/REfB5ZQa60O0kPvwFzTCHAS5WmPHv9wVgmv0noGssspHffFhaLJiwNEMQild8am1MSl9//x63MEpRheIO);strokeColor=none;spacingTop=-3;spacingBottom=-3;spacingLeft=-3;spacingRight=-3;points=[];labelBackgroundColor=none;rounded=0;html=1;whiteSpace=wrap;" vertex="1" parent="yR3y2CX_svczN8nzhuty-65">
          <mxGeometry y="20" width="17" height="17" as="geometry" />
        </mxCell>
        <mxCell id="yR3y2CX_svczN8nzhuty-22" style="vsdxID=13;fillColor=none;gradientColor=none;strokeColor=none;spacingTop=-3;spacingBottom=-3;spacingLeft=-3;spacingRight=-3;points=[];labelBackgroundColor=none;rounded=0;html=1;whiteSpace=wrap;" vertex="1" parent="1">
          <mxGeometry x="290" y="130" width="134" height="84" as="geometry" />
        </mxCell>
        <mxCell id="yR3y2CX_svczN8nzhuty-23" value="Infrastructure" style="vsdxID=14;fillColor=#FFFFFF;gradientColor=none;shape=stencil(hZNNEoIwDIVP020nbYSha3/uwShIRwSnguLtBVtpU0V3Tfoe+ZIGhutrlV8KJuHamfZU3PWhqxhumJS6qQqju/HEcMtwXbamOJq2bw42vuSTcjqd29v0hcH6VoorNbkkPGxGALzinZXve2P1whlWPMucQVAHDNImXPhwoVI8RadAqnBhlvJEhVVr3QSQQAGRZ78IgdIBR0XxwhYo8RsvnAohXiiZJBxUVJbWnGc0V/RYGEvwe6N0KF6+MMMY0hvE57vIuREhKah/3eXhRDtDQf+u2Hjw61nqurbbHd7H6zym7K+A2yc=);strokeColor=none;spacingTop=-3;spacingBottom=-18;spacingLeft=-3;spacingRight=-3;points=[];labelBackgroundColor=none;rounded=0;html=1;whiteSpace=wrap;verticalAlign=bottom;" vertex="1" parent="yR3y2CX_svczN8nzhuty-22">
          <mxGeometry x="1" y="1" width="73" height="82" as="geometry" />
        </mxCell>
        <mxCell id="yR3y2CX_svczN8nzhuty-24" style="vsdxID=15;fillColor=#FFFFFF;gradientColor=none;shape=stencil(lVTRcoMgEPwaXpmDQ5TnNPmPTGOqU6sZY9r076sF5cAhJm+47HJ7xwrD3bU6Xkom4Tr03Wf5U5+GiuEbk7Juq7Kvh3HFcM9wd+768qPvbu3Jfl+OE3NafXXf0wl3q1OGGzOpJPxaRHIs/oGD5b/feisQdl9rrnKnEJEE7tIiJueoHMlBipvMkXBNcpBQXOe0elO3xC1VWKTIeC4e2aWSGcq4VKHfsSnUod9RqGVomA4LY1aiPiLXIqpPTpbzBHVcnpjEFQkT3YfjIoLEeGO3RCFW1yZ9R9HdkgCkRxUHK/S6HcSt4MKjxpTwpgXlL21B2BLMk11aAvZKVIG9FFMIvRmz5HH2RztwkABgW1OfOYm6WbH6PfypcZklm6O7aDie81w0Pf/JZHqBWF2QXHpRJnS6PR9Ie9yI2Ljwr+q5bhr7KNP9+BUeIfuC4/4P);strokeColor=none;spacingTop=-3;spacingBottom=-3;spacingLeft=-3;spacingRight=-3;points=[];labelBackgroundColor=none;rounded=0;html=1;whiteSpace=wrap;" vertex="1" parent="yR3y2CX_svczN8nzhuty-22">
          <mxGeometry width="75" height="84" as="geometry" />
        </mxCell>
        <mxCell id="yR3y2CX_svczN8nzhuty-25" style="vsdxID=16;fillColor=#2d5967;gradientColor=none;shape=stencil(lVjLctswDPwaXzkkwec5Tf4j0zi1p26ccZI2/fuClUgRIEVFN1sGscACC1A+wN3b6fH1eNDy7f12/Xn8c356Px3g20Hr88vpeDu/46cD3B/g7vl6O/64XT9enqbvr4/JMn36df2dPHxO55SU6YyWf+fvWsT/Dx4m6+8ft8lccfv5gRZ+evCppwfOCzObzE/mE58wfTVRxDhbQG2xAgla2EBBJYWUFG8JCejv0M/xcn6pGKF8BC/sKDjGRszmJTaM3msaX+FwwEi2WYFFkrWj0ItXDpNxq+CAm0A/XUrNVrPss6aNGI2AQOzdRivWJzItIIDxH7XQgfLgrHCUh6CFs5QJZNj5EbxXIioGH4VXTA1SREfhvcyeRw2AVhaGsggisvSTZ0fxtV+sdInSRdYH2E6qzV8P829Uibxaxr7NThZ0LBEFr2ygVD4M2rA6MNNnxiJVtjCeY0XGgQ0uqEjI4cscyBKtFApouIvVmlpBSEPxa88zWDDCMfw6Sihdn2uc8Xn6lK1tYe213xIudiYM+egoF8+ETeEaJSSjo6NcA0KNO7dVrrFCMeV0lGtc9jxSLvqKw8nRUW7yzCZHR7kpSiaejnIxfzmeXI1yE7GawrfKxbA9F0Mj3VT7HcpVUei90tUmnxlJF7E865WOdBerr0u39rwu3RTltnSb/Le02Ghr9wF2/0PmDDngRRgyolnvIBuRslH3d+5cEVjjdoQznqFcsTnMAsuvWVaEQDFxWHhWgDCcU7ppPsUuWUi4Zbh4z2EyqY1W7qCdEVmOZOhlcy4j0gIDt41IO1lj1YfonkFr2cyHpt9xhGyXGB0NgTujMTk27WiMDF4uVtVoNG3eG5cawwteEbo6GrE0DLydjFsVr06ocoIl7psxo6rKLEmWGZAvk8N7+uYI2GtPR0zqv0js02ofl0ELyfSOgtBszji1WGVF2PJeNOjCWPbo19uw9ry+oeso1zf0dv7Nho64u9i8a9sw5DoP2nD8htcsaHxZkHsXtIesstGC9rbRTLufi9HX13Pld3071yGub+cm+WbZlhN9cjtT3bHX9lSz9pXVspsnll+zeFFWkbGV+ooIET8sf/w8ny+X6X+j+nf+RxE+mv5kgvt/);strokeColor=none;spacingTop=-3;spacingBottom=-3;spacingLeft=-3;spacingRight=-3;points=[];labelBackgroundColor=none;rounded=0;html=1;whiteSpace=wrap;" vertex="1" parent="yR3y2CX_svczN8nzhuty-22">
          <mxGeometry x="2" y="2" width="71" height="80" as="geometry" />
        </mxCell>
        <mxCell id="yR3y2CX_svczN8nzhuty-47" style="vsdxID=4;fillColor=none;gradientColor=none;strokeColor=none;spacingTop=-3;spacingBottom=-3;spacingLeft=-3;spacingRight=-3;points=[];labelBackgroundColor=none;rounded=0;html=1;whiteSpace=wrap;" vertex="1" parent="yR3y2CX_svczN8nzhuty-22">
          <mxGeometry x="50" y="-40" width="84" height="84" as="geometry" />
        </mxCell>
        <mxCell id="yR3y2CX_svczN8nzhuty-48" style="vsdxID=5;fillColor=none;gradientColor=none;strokeColor=none;spacingTop=-3;spacingBottom=-3;spacingLeft=-3;spacingRight=-3;points=[];labelBackgroundColor=none;rounded=0;html=1;whiteSpace=wrap;" vertex="1" parent="yR3y2CX_svczN8nzhuty-47">
          <mxGeometry width="84" height="84" as="geometry" />
        </mxCell>
        <mxCell id="yR3y2CX_svczN8nzhuty-49" style="vsdxID=6;fillColor=#FFFFFF;gradientColor=none;shape=stencil(lZPRDoIwDEW/Zq9LWUHCs+J/EAVZRCATFP/eYYdsAzW+td2922mzMtxey6zNmYBrp5pzfpfHrmS4Y0LIusyV7HTEMGW4LRqVn1TT10fK22xUjtGluY03DOSLOEajScCDCknC482rsif9oVdkCEggeIjGEfgWGASVwChMmsQchVGgqzBpEvLQfrWStUUJDuKb+QMhuHgz8ERnteDyTnDWVBzcVTiNvnFnCN/o9Cyi2CUEFy8Ab3xWB+hLfOJVxFnuI3+AnA1L6kEsG/HJB1zOxkNfBf39Hf/V62D++4WsKlod+9zfFV2iPcP0CQ==);strokeColor=none;spacingTop=-3;spacingBottom=-3;spacingLeft=-3;spacingRight=-3;points=[];labelBackgroundColor=none;rounded=0;html=1;whiteSpace=wrap;" vertex="1" parent="yR3y2CX_svczN8nzhuty-48">
          <mxGeometry x="1" y="1" width="82" height="82" as="geometry" />
        </mxCell>
        <mxCell id="yR3y2CX_svczN8nzhuty-50" style="vsdxID=7;fillColor=#FFFFFF;gradientColor=none;shape=stencil(lZXRdoIwDIafprc9aUOBXjv3Hp6JgzMGHsQN316whbYBQe9K/INf/iSU4e6SH84Zk3Bpm/on+y+Obc7wg0lZVHnWFG1/YrhnuDvVTfbd1NfqaJ7Ph0E5nH7rv+ENncnTyFENWRJuJiI5po/Ap9F/XRuTIGyG4pG2GYKkQCetKOE4imwo4tJGOpyLbCjmEfp/XhaVD+slTPipWKX1UlwBWhFcryZXQRoTXs8rpKpF4L4cEfJSPeXtXUoJbsJjGeI6v2+ugESEtJ7I8avkOayXsNwMyuoliFmP5ayeGXyHM5co+/IYbM7su/qtnYA3WgzrlqUqtAxCv4CaRYcQQqfWFwYCss1lAUYnT0R08iZ+GxEAbKObo+RZc1S400S+sNGCeOgYKJS3zVMpSDWvrYfTv7YdWvMkpt/JqZsjV8y1CFGJnQsfnXU310a3P7iL4FSUpblH/N/pxdGHzKWD+zs=);strokeColor=none;spacingTop=-3;spacingBottom=-3;spacingLeft=-3;spacingRight=-3;points=[];labelBackgroundColor=none;rounded=0;html=1;whiteSpace=wrap;" vertex="1" parent="yR3y2CX_svczN8nzhuty-48">
          <mxGeometry width="84" height="84" as="geometry" />
        </mxCell>
        <mxCell id="yR3y2CX_svczN8nzhuty-51" style="vsdxID=8;fillColor=none;gradientColor=none;strokeColor=none;spacingTop=-3;spacingBottom=-3;spacingLeft=-3;spacingRight=-3;points=[];labelBackgroundColor=none;rounded=0;html=1;whiteSpace=wrap;" vertex="1" parent="yR3y2CX_svczN8nzhuty-47">
          <mxGeometry x="2" y="2" width="80" height="80" as="geometry" />
        </mxCell>
        <mxCell id="yR3y2CX_svczN8nzhuty-52" style="vsdxID=9;fillColor=#2d5967;gradientColor=none;shape=stencil(lZXLcoMwDEW/xlvGSDzqdZr+R6YhhSmFDCEt+ftCDViSE+Lu/LgyR9I1Vri7lIdzoUBf+q79LH6qY18qfFUAVVMWXdWPI4V7hbtT2xUfXXttjnZ+PkzKafTVfk8nDDbOpFEaT1Ggb3ZF/83erLiuGiJOIkgea9+vnT05tpswS2Oq1QOw6Q2YeEC+i+uH08dYmjGZbAtKcyjzwqmAU8Vacy5SAeSSu2RjdfOM0Qm5xFt4Fj4HIIkWxDUDlAJ0DBvFc/r7pfYIzXLcCgkc0eROwZs9oG86fOq6JxYVfs4izcVe/l5GJCRmHnIpkT7CGjUXaistpwq7UJ5ewmJkjGR1ILCI8kTSclSiCLMJCQjzCQmYVxIJuWbisEVF/euGm5T+fZP6gOYTDNJr0f6Eg1JF0D8rwKf/DhgH7jd/quravhJ0Xz4L45J9UnD/Cw==);strokeColor=none;spacingTop=-3;spacingBottom=-3;spacingLeft=-3;spacingRight=-3;points=[];labelBackgroundColor=none;rounded=0;html=1;whiteSpace=wrap;" vertex="1" parent="yR3y2CX_svczN8nzhuty-51">
          <mxGeometry width="80" height="80" as="geometry" />
        </mxCell>
        <mxCell id="yR3y2CX_svczN8nzhuty-53" style="vsdxID=10;fillColor=#2d5967;gradientColor=none;shape=stencil(pZLZDsIgEEW/hldCGRfea/2PJqVCRGgodfl7IRPTxUZtfbsznDszIZdA3qqykYSzNnh3ljddBUXgQDjXVkmvQ1QECgJ57bw8edfZCuumTGRSF3dNE+7oyxhLHs4eWGN1RNRoO0BXgq8Ns+h0/SJ4LTr+AQE0245gsaF8/2H2joo/DX1n1vB+0mLDl5N+METRh6bWxmDmhu/TkMUWBhSKJw==);strokeColor=none;spacingTop=-3;spacingBottom=-3;spacingLeft=-3;spacingRight=-3;points=[];labelBackgroundColor=none;rounded=0;html=1;whiteSpace=wrap;" vertex="1" parent="yR3y2CX_svczN8nzhuty-51">
          <mxGeometry x="21" y="8" width="17" height="17" as="geometry" />
        </mxCell>
        <mxCell id="yR3y2CX_svczN8nzhuty-54" style="vsdxID=11;fillColor=#2d5967;gradientColor=none;shape=stencil(pZLdDoIwDIWfZrfLtgrMa9T3IDJkERkZoPj2slQjDAV/7tr1O+1ZUwJxnSeVIoLVjTVHddFpkxPYECF0mSurmz4isCUQZ8aqgzVtmWJeJY500cmcXYcOdZwxpxHsijlmO0QLXQ7QH8HHhJeoP96D961FsxzLa0lldBdwr0MnpowYGerAHwqLf5ndz3iVEigPRrBcURHN9A6pDP8TuJfgvWBq6WvBgqUPBH3wvL5MFwUe77DuX2v/hJcO2xs=);strokeColor=none;spacingTop=-3;spacingBottom=-3;spacingLeft=-3;spacingRight=-3;points=[];labelBackgroundColor=none;rounded=0;html=1;whiteSpace=wrap;" vertex="1" parent="yR3y2CX_svczN8nzhuty-51">
          <mxGeometry x="41" y="8" width="17" height="17" as="geometry" />
        </mxCell>
        <mxCell id="yR3y2CX_svczN8nzhuty-55" style="vsdxID=12;fillColor=#2d5967;gradientColor=none;shape=stencil(pZLLDsIgEEW/ZraEh9WyrvU/mpQKEaGh+Pp7IRNj1Vir7mYu9zBhuCCqQTe9Ak6HGPxOnUwbNYg1cG6cVsHEVIGoQVSdD2ob/MG12PdNduZq74/5hjNyrCCSZYrTCyqiICtUNghY40ZAuSBU/gdITsrle4BR+mC/9bPME9YfjdPjX9b36XHf7nsGkIr793bGWkzH+Pw5DknCKIn6Cg==);strokeColor=none;spacingTop=-3;spacingBottom=-3;spacingLeft=-3;spacingRight=-3;points=[];labelBackgroundColor=none;rounded=0;html=1;whiteSpace=wrap;" vertex="1" parent="yR3y2CX_svczN8nzhuty-51">
          <mxGeometry x="31" y="29" width="17" height="8" as="geometry" />
        </mxCell>
        <mxCell id="yR3y2CX_svczN8nzhuty-56" style="vsdxID=13;fillColor=#2d5967;gradientColor=none;shape=stencil(pZLNDsIgEISfhusGdqWVc63v0aTUEmtpKP69vUVirBpr1dvsMB8hyzDK+rroNEPee2e3+mhKXzNaMUTT1toZPyhGOaOssk5vnN23ZZy7IiSD2tlDuOEUOSFBiUAhP0cHEUhdnXUEGtOOgOUCuPoPUBIkvgcE5w/x2zwrPBH9MZikIJKJB7wsMCUQ9A3wYYEzgEHcP7gyTRP7MT5/LsRgxTJRfgE=);strokeColor=none;spacingTop=-3;spacingBottom=-3;spacingLeft=-3;spacingRight=-3;points=[];labelBackgroundColor=none;rounded=0;html=1;whiteSpace=wrap;" vertex="1" parent="yR3y2CX_svczN8nzhuty-51">
          <mxGeometry x="51" y="29" width="17" height="13" as="geometry" />
        </mxCell>
        <mxCell id="yR3y2CX_svczN8nzhuty-57" style="vsdxID=14;fillColor=#2d5967;gradientColor=none;shape=stencil(pZLbDsIgEES/htcN7Eorz7X+R5NSS6yloXj7e4vEWC+NVd+GYQ6bLMMo6+ui0wx5753d6qMpfc1oxRBNW2tn/KAY5Yyyyjq9cXbflvHcFSEZ1M4ewgunyAkJSgQK+Tk6iEDq6qwj0Jh2BCwXwNV/QEogaBoQnD/EkxREMj/Op6M/Bm8T3o9/WaCSIPEb4MMCZwCDuH9wZZom9mN8/1yIwYplovwC);strokeColor=none;spacingTop=-3;spacingBottom=-3;spacingLeft=-3;spacingRight=-3;points=[];labelBackgroundColor=none;rounded=0;html=1;whiteSpace=wrap;" vertex="1" parent="yR3y2CX_svczN8nzhuty-51">
          <mxGeometry x="11" y="29" width="17" height="13" as="geometry" />
        </mxCell>
        <mxCell id="yR3y2CX_svczN8nzhuty-58" style="vsdxID=15;fillColor=#2d5967;gradientColor=none;shape=stencil(nVTLcoMwDPwaXzW25fhxTpP/yDSkMKWQIaSlf18Ym2LZA016s8WuVlphMdzfytO1YJLf+q59L76qc18yfGFSVk1ZdFU/nhgeGO4vbVe8de29Ofv79TQhp9NH+zllGDxvxyeK5N/+6m9Hj6yrJkJSoESQYgMMGineANoY/3rvfB3CAzTgzAgRw0EqHxpkyKJhZwMqhAQPhQ2YdIQUsKJrEJSkwkvKoOEQnKOycXFByDlAQ7WzrqlLv0KPmfr4rLaQdP7KgHEELDgIuZ46JzgB3GxZLC0ITS22DqylJgsBmJis1YKapwupxQ6Mfqbcp/vLCMkLkvPQVg1JhpMR/ijJKUgeU9pz6ri1oAV1PPZy/ocFWEUdj+eCebn4zwYzwnhYNtKlqmu/0OLv6QYbQ3774eEH);strokeColor=none;spacingTop=-3;spacingBottom=-3;spacingLeft=-3;spacingRight=-3;points=[];labelBackgroundColor=none;rounded=0;html=1;whiteSpace=wrap;" vertex="1" parent="yR3y2CX_svczN8nzhuty-51">
          <mxGeometry x="8" y="37" width="63" height="33" as="geometry" />
        </mxCell>
        <mxCell id="yR3y2CX_svczN8nzhuty-72" style="vsdxID=21;fillColor=none;gradientColor=none;strokeColor=none;spacingTop=-3;spacingBottom=-3;spacingLeft=-3;spacingRight=-3;points=[];labelBackgroundColor=none;rounded=0;html=1;whiteSpace=wrap;" vertex="1" parent="1">
          <mxGeometry x="278" y="40" width="84" height="84" as="geometry" />
        </mxCell>
        <mxCell id="yR3y2CX_svczN8nzhuty-73" style="vsdxID=22;fillColor=#FFFFFF;gradientColor=none;shape=stencil(lZfbUhsxDIafJrcaW/LxmtL3YEoomaYJE0ILb1+lG8trOeuFu2Ck/WxL+iVv6O71+eFlu0Hzej4df23/7h7Pzxv6tkHcHZ63p92Zf23ofkN3T8fT9ufp+HZ4nP5+ebhYXn79Pv65fOF98osOEl680HxMKymCp/8r3yeH/e4wd8hgUutAQHbZITnA3DokcHnu8OPtNO3JyhdD2VRZspAmiHlHWXLuanVdigg2Xq1IDpiL1XUp+LKjBX7IEF3L9xlybvkBIfiW7wNkavmeYbbls1VMI/7cpyxFwNTy51YoVjGu8xNgHPIdxBYfUj1YYVm5Ebn+DJRavON9hxbP4c9+hHc1ioWfOSldy6cIhlp+Zj62fCLwueVXqwU+IWTNZx91frYi1/FRXT9ZiNTxbRjxEevJ6vkptnwbwCh+QoEVviXJCEn/DIFGfIvVp8TfgUXFR0Bs+ZxYEiUSq+Io6YelIm/qhWm04kvGLgyN53tZcLhxFejbq3AWLHVXkWJ7FeSBfBeKrEoBORRjfgSrlMhaUezCR65XpUQGdCKSCGihF5ulMmClzy27fvWKcRxxdXJX2keVIJZzdXAy5V6XJYjUwanPQbZKSgIpgVEawBJoVA1wEMeBn/tUWXJe8WdWKFY3WkDHp9K7lloQlsyofOpaAJdyUoF3pqhLbYFeMlbunzNmqEHcXIPSIIx9C+bIqh5gk2Rs4c8ngFIL3LubFrg2ZLDahTxw6MYYrkkXlx14yin1+TGXkpvGrNgpfeXr2VfV/9T+s5Hc+pAb8sMKSbwpLQ1JFEYiVBunVIiRcEiGsA6pDOU6isMMjQFQZyjfisqQ2E8JzkvjKPzQTwkrWs5DhG0vbM2Bp9TWHktLX0oQFREeOPIghNaoZiRJs/j9dizmkh/th6u/PQB3WzMC8JQdWodxLw0BUh47dDnQqwRLctA54EGlgJ+NMzUFpSBLVtgR+1LBLZrV0KkhkYtE6XMy0qsLmouvjK2zGXWUHH19c3jsqL47BVl5ZvX6VPLrk/q39oxbd+Af9dX4tNvvp0fn/P/6lclL0wuV7v8B);strokeColor=none;spacingTop=-3;spacingBottom=-3;spacingLeft=-3;spacingRight=-3;points=[];labelBackgroundColor=none;rounded=0;html=1;whiteSpace=wrap;" vertex="1" parent="yR3y2CX_svczN8nzhuty-72">
          <mxGeometry x="1" y="1" width="82" height="81" as="geometry" />
        </mxCell>
        <mxCell id="yR3y2CX_svczN8nzhuty-74" style="vsdxID=23;fillColor=#FFFFFF;gradientColor=none;shape=stencil(lVrbctw2DP0av3J4vzyn6X9kGqf21I0zjtMmf1+oKwLk4QrafVvLgA4J4nIA6iF8+P706dvjg7ff399e/3r89/nz+9ND+O3B++evT49vz+/06yF8fAgfvry+Pf759vrj6+fL398+bZLbr79f/9ne8POiV7OxedPy9tflSTC+/f/g94v8y/PXUb6a6Cb5ZHI4lm/WlDLJF1O9Ip9NmtfjgikaQDR+XpDjLR2tKIVZwatboC27OitYsNEfP94uRnW7SjHN7yqOV3VRsT89m9530+yPfDNxh/oZdnORveIutT8KdAZFgy/R1DTDR2dSnPGLM77O+DHO4LmYEGbwmIyKnYMJFbCLAejUjAsAXU2YwRPtAsFJaEKHk2qmzCd1pkC+lWYF8gXN/bNxs7dFa5yCsPpzbKYlFcFP8tmaoARM5fDggCSP0Y3UZoTk1AhLhNB0BXSCNISME53ZCbKXQOx+4dla7IJkwB4l4hg+qv5vTYbwS4l3zf4fF/+ndYc241P8BYi/TLHk1PBPBnZPK4oJwr+Y1GZ4OksL4T9mksAHuHv5UX7zc8atHMU3ZlBahwawuDT5rBZlWw2Y5Js3mkdXsTivMEVFgc52dlBaohoCwcQFwWoKzrSIW1BqTEkmpXtMVKqxAc+gaUZyJs+pbvMnzUhkw3kHtpv5yIvJLyCKhkfsxt0Q7MWln67EUOzHITEU+4aPYthLpu2lhQoWBFGuBkO4GZtm+JyMyzM85ciklzGKcUwhWaLT82uyA/zE3suFLJiMKSz1RHOUQQcdwcftb1KYQgvbbcBPYdl/qyf4i/krm5Hx7ZLDyJMdFPI4FE1Ja+rpE13JeYanEC2w/VB6IWB4ivwM5g8USQAvUgf4YWUx45s7vhduNuADvDdhhU8aOnHwXoaG3Veon64Iy+vBaBHdpYVEbTGjnr2LQqOE1WHgu6FsiO8hfSUph76n0w0y11xd7pUnzucVgjWu6EDhikEceGOUUx0MUiAYQ2Y3Ug4kcEdyhF/Fz2RJFvCpE2twIMFAKgxR6kx/ZKIKTt1GAXBWYWyi+B4TQa+okoc8P2JwZ6yeB70Y1fEeCubhIHzT87IjUDmSisCl6Bi9zmQHnX70QXYm+EhlSaphQ0NSFfAjdMMLfhEdJzpYBqW7k1auW3asgx4bKn9WB+vSyVJutoC/lXxoZQNXZmYBSUYN/fjJZVV4YhcVyhA5VgHPr3GpAxRmGVIhSUUwf4MysHAsmF0434njjSyOun6nUOmVJ7rQQ/2QiM7Zjgqp1k0GOfL9QCHglu7zvnHQqfzZuMkqL49SBnfr9EM9Mk6C9t9ETd5K0tqjzRR/LF9CL5yDP2htwxYWMJvSh1lXEFIvb9cVcj9+VijqAOOKizbVg0qD5u0EYGtMHG5BpRt0DEg3qKgj16I+vEGKpfDFElOkNP2SkhfUbn3oIXqFaUuG24YVmGGdqVhhEj8aK4xi3lGDFaxeEpKQfqnRwM5IyGFGjgYbkyhNjnCRrDPztsxWMucYpgO2B5IkZANdSViZYZe5aqmNxs89OIgvLDouLZwsoq8q9/orCyX7g50oalNb7ORU9G2oDJWLql0AQw1gv8R2GUzl3OpWTPauGsvOLnWPMDmFNj4f13KgcMUUFg5iGwBjO+OlFvago7qO/Uzos2/pZ1qf4x3hD5RbeAXSd3KOApMM6tN4aCiEFUcZrXbFIwY9DDod61TgsOTf2E+RVEMCHxZXEKkj/CK5y61v7n7nhVp0/LL28lXOsvOqs+uIxDN1mYdWHtkNGStAKFJmRhJHUjyx74+qcWcJEzsY0rF4JzFIST+L9r+Gj/P2pcAM7FjwMWfm4WaNaf0MXoYjEk6vTzKobia4CyqWkx4zaGsg9kjPAzyVdoy9imO8E/JAcec1PryOQbEenfGfM4SFYdEWslcUFg633dDch8DU5UYa2jjv3diXNPbKG4l0qzD8PaP1zmpEveAd1Mn7m+XmVCb2VilRzS8Tex6QXleocnPJi6xaXbNzGdxOWVvQ+v7YA+26Qurwg6dqABFvnclPtG6mebzX3gAUz94uAhtuYQ6Fhaq3pZJTCxshk9dhztAzWZZ615NZWyeD7WQcQOHeoJJuI3jIpCXK8FaSO46Fi7t2sahRn3HMcJuC5z6iK+hetR0xfF1xcpm7IjSjZwIAyO7sOtrObphD56eHuSDdg0CR5JbrZQ2hNZlz7qSkqfy2ycXFMPHVrFrwco0arKDk/O0GEsYgGUjhmpEjIkTtHFy/sBk+PGjaHuwyFycapiEsrhRPylCQ3mlX0PsMijhIgYvClS9ZkDrSqjpPHGYDHujLOJ+XhBNx/th6T3l8kx+BPREDR+pY189ZttETzCbGfCuXAVGveut0p2h1NWBKd81o8kluGW8DoFCCJvxkC00GuLtC6OzlVgQPrfZqpHkPWXVb4h6YDfQkXgyM5NQR3n0TTl2Yfsh3e1+eX14un/2N/8fv/OjR5RvB8PE/);strokeColor=none;spacingTop=-3;spacingBottom=-3;spacingLeft=-3;spacingRight=-3;points=[];labelBackgroundColor=none;rounded=0;html=1;whiteSpace=wrap;" vertex="1" parent="yR3y2CX_svczN8nzhuty-72">
          <mxGeometry width="84" height="84" as="geometry" />
        </mxCell>
        <mxCell id="yR3y2CX_svczN8nzhuty-75" style="vsdxID=24;fillColor=#2d5967;gradientColor=none;shape=stencil(lVPLUsMwDPwaXzWSLb/Opf2PDk2Jh5B00hTavyfBNsQwNXCT5V3tWpaE2pzb/akREs/TODw3b+EwtUI9CClD3zZjmOZIqK1Qm+MwNk/jcOkP8XzaL8glehlelwrXyCMD2i0sibeY0RbMR2IX8V3oV3hHQPofeKNA2wLvLPj7eIugfYEnxPvwfJnB7MDpanVZuq/U/mmdJDBXeoNgyl4yVglkwVKd8HgZ43dRohD4bCqlmEGmll1lsg6Yn5kybEGaBFLrp+MtHdmDopq0BsOlsqZM+VSe/ZEvpTUDulJ6PXXqL2P0+5jOwdeMH0PXxRVZ33/fiTkV90lt3wE=);strokeColor=none;spacingTop=-3;spacingBottom=-3;spacingLeft=-3;spacingRight=-3;points=[];labelBackgroundColor=none;rounded=0;html=1;whiteSpace=wrap;" vertex="1" parent="yR3y2CX_svczN8nzhuty-72">
          <mxGeometry x="51" y="33" width="29" height="17" as="geometry" />
        </mxCell>
        <mxCell id="yR3y2CX_svczN8nzhuty-76" style="vsdxID=25;fillColor=#2d5967;gradientColor=none;shape=stencil(lVjbchQ7DPyafVXZlq/PHPgPCgLZIiehlnD7e2R2bI/bO9ribeNI07YstVo+8Ztvj++/Ppyc+fZ6efny8PP88fXxxP+dnDs/Pz5czq/y68RvT/zm08vl4fPl5fvzx+vfX99Xy/rr/5cf9Qu/rn6FKbjq5czv60ouVMLflXdXh6fz897BkuHJoTgKee/w4fvlCmE3A0MxbS7bUg7kryu/3LaSKTWjbSlZynmz4m2p0Lbye1uJjthq6ClSCDN6yFTSDJ8cxTjDh0jsZviYidOMH3wL4AF+9GTg9MFRcjN+KOQRX45vZ3wBg+NXI6/B71zaiqFQAH0YbSu+EPt74D6TVWMvp4LQVxc4ugTIwtF9Igs3L6H3BeBD2+PR1TvKDvAl3+2MLwmSGPBNd2z42czgnMir4JLQBQ7v0vis67UBWW89cZixxahA2iVySSlSJt8ctpVWXbftU7+nbRNMirk1Zra25NTN5Mlc8kgnmJlfHCnWEuX540axDWDLiq0nH2DXrOwjJUoYE6OEMBtixpAHzcFDWIpuLgky71+yfNr/kq+JDBSLbAnSVULYvrqtyHdNYxPusejYrVo8Fb1UPTngKamwkmf4JNXil1JlpIo4yr5RhSOjMpW0kTLDC1NEBprMFAvAjzzZ8aSH41crnSh3PgO/dYQdTXsIvxwsrDztgC28pXivS/SuPsIfoUcHHq10W2LufbPju1bfHb/Sj9okhfDx9ilDi+bcu2ZDN2Qg+LKfTuYMRgfYDgJvlg5lE2a9VHcTAg258nZajj1zAEJLgVk8dxiqo4G5Jez1QhHfEWZdJjPd+kwRM4f/k7GojhSPjXdbObBfAuEamw2ZIuWPgZBwQSCquoIUkItA+hHe0IWKjeSB/LIowhleOhHoBOmbhWd0to1nO3opFFWBzF3DdnTxSUB+YpVBpYlVRnxe2GdYHeHHoS/s+uU153bnB+71sQn7hp7voUtyWChB6Y4GVJpwT4box9J7qMJ9Qtq6UNv7jNwLkHti1epyNyCEsuD3PGpLoTHkEX5uidbhxQWOL/0phQUemF8aX0R0ydCioUtpeBwQShvoRuPl9pkRfbvkvijpAvhSn0WtPFEUjW4bftr1lKY7dl8eSwHwRcJYzH0mM9XeoqrsTFWitVWHRbfJPuyx/aILq2DV9KxflLskg+YQx3jZi1JVtnm05438jCKaqxwP+H1NvjN+XntNwEniTnSWOUUP/r8/btx3mJ9PPHY6ScGgsp3oVUh3iTDoLOHjCMUuWbAw/XhF6Nkemow70jppqbYC4M4uRJdH3+1NNvfq76VeyOlNVroFiOwo3QrajFgxaPxKx9BnqhUwnTReJRe4wPB3z15mnzkVhKddURzCuI7tcAa4b3aQVglzcWkPPkcAwFWiiLMyA0qCxNlBWnhQRB4XyOYqCpUjyyU43f5GCjhodnU0g15bEwV6vRy+wJxxIwVFcOvdrl/p0J0tRD3/1zHDj+e6obIizlikSn25Kxxwm8dQWP7GnOFB50uMUeKwgWu9IbEYTu5vjHdmoZ36BAth98ucsXAe5PldjpQf43360/np6fq8vf8/vmfL0vUtnN/+AQ==);strokeColor=none;spacingTop=-3;spacingBottom=-3;spacingLeft=-3;spacingRight=-3;points=[];labelBackgroundColor=none;rounded=0;html=1;whiteSpace=wrap;" vertex="1" parent="yR3y2CX_svczN8nzhuty-72">
          <mxGeometry x="1" y="2" width="79" height="79" as="geometry" />
        </mxCell>
        <mxCell id="yR3y2CX_svczN8nzhuty-81" value="&lt;b&gt;1&lt;/b&gt;" style="text;strokeColor=#b85450;align=center;fillColor=#f8cecc;html=1;verticalAlign=middle;whiteSpace=wrap;rounded=1;arcSize=50;sketch=1;curveFitting=1;jiggle=2;" vertex="1" parent="1">
          <mxGeometry x="180" y="204" width="30" height="30" as="geometry" />
        </mxCell>
        <mxCell id="yR3y2CX_svczN8nzhuty-82" value="&lt;b&gt;2&lt;/b&gt;" style="text;strokeColor=#b85450;align=center;fillColor=#f8cecc;html=1;verticalAlign=middle;whiteSpace=wrap;rounded=1;arcSize=50;sketch=1;curveFitting=1;jiggle=2;" vertex="1" parent="1">
          <mxGeometry x="220" y="280" width="30" height="30" as="geometry" />
        </mxCell>
        <mxCell id="yR3y2CX_svczN8nzhuty-83" value="&lt;b&gt;3&lt;/b&gt;" style="text;strokeColor=#b85450;align=center;fillColor=#f8cecc;html=1;verticalAlign=middle;whiteSpace=wrap;rounded=1;arcSize=50;sketch=1;curveFitting=1;jiggle=2;" vertex="1" parent="1">
          <mxGeometry x="305" y="430" width="30" height="30" as="geometry" />
        </mxCell>
        <mxCell id="yR3y2CX_svczN8nzhuty-84" value="&lt;b&gt;4&lt;/b&gt;" style="text;strokeColor=#b85450;align=center;fillColor=#f8cecc;html=1;verticalAlign=middle;whiteSpace=wrap;rounded=1;arcSize=50;sketch=1;curveFitting=1;jiggle=2;" vertex="1" parent="1">
          <mxGeometry x="394" y="280" width="30" height="30" as="geometry" />
        </mxCell>
        <mxCell id="yR3y2CX_svczN8nzhuty-85" value="&lt;b&gt;5&lt;/b&gt;" style="text;strokeColor=#b85450;align=center;fillColor=#f8cecc;html=1;verticalAlign=middle;whiteSpace=wrap;rounded=1;arcSize=50;sketch=1;curveFitting=1;jiggle=2;" vertex="1" parent="1">
          <mxGeometry x="450" y="190" width="30" height="30" as="geometry" />
        </mxCell>
      </root>
    </mxGraphModel>
  </diagram>
</mxfile>
